HIERARCHY
ROOT Hips
{
	OFFSET 0.000000 0.000000 0.000000
	CHANNELS 6 Xposition Yposition Zposition Zrotation Yrotation Xrotation 
	JOINT LHipJoint
	{
		OFFSET 0.000000 0.000000 0.000000
		CHANNELS 3 Zrotation Yrotation Xrotation
		JOINT LeftUpLeg
		{
			OFFSET 1.363060 -1.794630 0.839290
			CHANNELS 3 Zrotation Yrotation Xrotation
			JOINT LeftLeg
			{
				OFFSET 2.448110 -6.726130 0.000000
				CHANNELS 3 Zrotation Yrotation Xrotation
				JOINT LeftFoot
				{
					OFFSET 2.562200 -7.039590 0.000000
					CHANNELS 3 Zrotation Yrotation Xrotation
					JOINT LeftToeBase
					{
						OFFSET 0.157640 -0.433110 2.322550
						CHANNELS 3 Zrotation Yrotation Xrotation
						End Site
						{
							OFFSET 0.000000 0.000000 0.000000
						}
					}
				}
			}
		}
	}
	JOINT RHipJoint
	{
		OFFSET 0.000000 0.000000 0.000000
		CHANNELS 3 Zrotation Yrotation Xrotation
		JOINT RightUpLeg
		{
			OFFSET -1.305520 -1.794630 0.839290
			CHANNELS 3 Zrotation Yrotation Xrotation
			JOINT RightLeg
			{
				OFFSET -2.542530 -6.985550 0.000000
				CHANNELS 3 Zrotation Yrotation Xrotation
				JOINT RightFoot
				{
					OFFSET -2.568260 -7.056230 0.000000
					CHANNELS 3 Zrotation Yrotation Xrotation
					JOINT RightToeBase
					{
						OFFSET -0.164730 -0.452590 2.363150
						CHANNELS 3 Zrotation Yrotation Xrotation
						End Site
						{
							OFFSET 0.000000 0.000000 0.000000
						}
					}
				}
			}
		}
	}
	JOINT LowerBack
	{
		OFFSET 0.000000 0.000000 0.000000
		CHANNELS 3 Zrotation Yrotation Xrotation
		JOINT Spine
		{
			OFFSET 0.028270 2.035590 -0.193380
			CHANNELS 3 Zrotation Yrotation Xrotation
			JOINT Spine1
			{
				OFFSET 0.056720 2.048850 -0.042750
				CHANNELS 3 Zrotation Yrotation Xrotation
				JOINT Neck
				{
					OFFSET 0.000000 0.000000 0.000000
					CHANNELS 3 Zrotation Yrotation Xrotation
					JOINT Neck1
					{
						OFFSET -0.054170 1.746240 0.172020
						CHANNELS 3 Zrotation Yrotation Xrotation
						JOINT Head
						{
							OFFSET 0.104070 1.761360 -0.123970
							CHANNELS 3 Zrotation Yrotation Xrotation
							End Site
							{
								OFFSET 0.000000 0.000000 0.000000
							}
						}
					}
				}
				JOINT LeftShoulder
				{
					OFFSET 0.000000 0.000000 0.000000
					CHANNELS 3 Zrotation Yrotation Xrotation
					JOINT LeftArm
					{
						OFFSET 3.362410 1.200890 -0.311210
						CHANNELS 3 Zrotation Yrotation Xrotation
						JOINT LeftForeArm
						{
							OFFSET 4.983000 -0.000000 -0.000000
							CHANNELS 3 Zrotation Yrotation Xrotation
							JOINT LeftHand
							{
								OFFSET 3.483560 -0.000000 -0.000000
								CHANNELS 3 Zrotation Yrotation Xrotation
								JOINT LeftFingerBase
								{
									OFFSET 0.000000 0.000000 0.000000
									CHANNELS 3 Zrotation Yrotation Xrotation
									JOINT LeftHandIndex1
									{
										OFFSET 0.715260 -0.000000 -0.000000
										CHANNELS 3 Zrotation Yrotation Xrotation
										End Site
										{
											OFFSET 0.000000 0.000000 0.000000
										}
									}
								}
								JOINT LThumb
								{
									OFFSET 0.000000 0.000000 0.000000
									CHANNELS 3 Zrotation Yrotation Xrotation
									End Site
									{
										OFFSET 0.000000 0.000000 0.000000
									}
								}
							}
						}
					}
				}
				JOINT RightShoulder
				{
					OFFSET 0.000000 0.000000 0.000000
					CHANNELS 3 Zrotation Yrotation Xrotation
					JOINT RightArm
					{
						OFFSET -3.136600 1.374050 -0.404650
						CHANNELS 3 Zrotation Yrotation Xrotation
						JOINT RightForeArm
						{
							OFFSET -5.241900 -0.000000 -0.000000
							CHANNELS 3 Zrotation Yrotation Xrotation
							JOINT RightHand
							{
								OFFSET -3.444170 -0.000000 -0.000000
								CHANNELS 3 Zrotation Yrotation Xrotation
								JOINT RightFingerBase
								{
									OFFSET 0.000000 0.000000 0.000000
									CHANNELS 3 Zrotation Yrotation Xrotation
									JOINT RightHandIndex1
									{
										OFFSET -0.622530 -0.000000 -0.000000
										CHANNELS 3 Zrotation Yrotation Xrotation
										End Site
										{
											OFFSET 0.000000 0.000000 0.000000
										}
									}
								}
								JOINT RThumb
								{
									OFFSET 0.000000 0.000000 0.000000
									CHANNELS 3 Zrotation Yrotation Xrotation
									End Site
									{
										OFFSET 0.000000 0.000000 0.000000
									}
								}
							}
						}
					}
				}
			}
		}
	}
}
MOTION
Frames: 8
Frame Time: 0.008333
12.109069 15.334084 14.066381 -179.051886 3.780532 -168.922638 0.995936 -1.826459 -6.206823 -9.086125 0.985876 -42.525087 -1.476953 20.164596 74.568407 -8.591093 -2.144208 9.539424 5.137789 -0.468725 -7.312616 4.750074 5.913964 -8.392608 18.044140 -5.438823 -19.466053 -11.407524 -12.048624 46.249876 -21.544867 -8.838708 -30.749038 22.870298 2.622686 -31.415649 -7.130755 -3.465363 21.877915 3.832879 2.285016 -8.784286 -4.527485 1.698797 5.731716 4.749517 1.212472 -16.597525 7.456566 -0.686598 6.049481 -8.066442 0.619039 -2.011597 16.147224 6.427305 -3.545940 -80.922991 -2.197854 19.547508 39.071678 -69.384188 -4.938338 -6.632941 -31.795090 6.597120 -0.000000 0.000000 0.000000 -0.000000 0.000000 0.000000 -0.000000 0.000000 0.000000 -2.273176 4.405275 9.627783 61.950501 51.091309 -0.494190 8.289476 75.178794 28.337113 -9.996359 14.601487 0.617764 0.000000 -0.000000 0.000000 -0.000000 -0.000000 -0.000000 0.000000 0.000000 -0.000000 
12.114384 15.386186 13.734009 -179.592994 3.477684 -169.000626 0.850838 -1.826795 -6.094762 -9.713649 0.534437 -44.040686 -1.646092 20.084898 72.675640 -8.488214 -2.804709 8.675297 5.262827 2.150092 -8.921872 4.338376 6.281074 -8.708740 17.457185 -6.763451 -16.966792 -10.577339 -12.110036 44.385362 -20.749187 -7.944950 -30.328294 23.545049 2.078005 -31.840496 -7.121523 -3.681256 21.751267 3.681861 2.348588 -8.879926 -5.506221 2.128204 5.567955 5.142054 1.157164 -16.624466 7.452868 -0.847038 6.053886 -7.615814 0.137874 -1.493064 16.280433 6.591130 -3.871233 -80.802001 -0.055110 19.710861 41.425550 -69.529579 -6.557146 -6.392053 -31.819305 6.527738 0.000000 0.000000 -0.000000 -0.000000 0.000000 0.000000 0.000000 0.000000 -0.000000 -1.870382 4.648023 9.595713 61.446026 51.669900 -0.745956 7.083461 76.592537 27.694594 -10.232631 14.400008 0.573662 0.000000 -0.000000 0.000000 0.000000 0.000000 0.000000 -0.000000 0.000000 0.000000 
12.119880 15.443994 13.394985 179.848251 3.086652 -169.223094 0.852254 -1.744093 -5.855617 -10.464447 -0.195879 -45.079608 -2.676463 19.700514 70.154799 -8.236263 -3.978744 7.330980 6.900094 -0.669703 -9.711880 4.119225 6.819125 -9.211891 16.441373 -8.091152 -13.961685 -9.062437 -11.767347 42.625858 -20.060208 -7.760647 -29.186909 23.649930 2.626198 -32.310950 -7.102926 -3.909696 21.916502 3.525867 2.579039 -9.008999 -6.014654 2.567802 5.352869 5.111633 1.050770 -16.695324 7.256782 -0.958504 6.019690 -7.207465 -0.469169 -0.940881 16.128649 6.634613 -4.127628 -80.944282 1.691767 19.558807 42.904355 -69.756237 -8.139168 -6.927577 -31.572124 6.640018 -0.000000 -0.000000 -0.000000 0.000000 0.000000 0.000000 -0.000000 -0.000000 -0.000000 -1.945929 4.740856 9.465321 60.834323 51.759114 -1.201736 5.977970 78.064968 27.306673 -9.657420 14.682937 0.670860 0.000000 -0.000000 0.000000 0.000000 -0.000000 -0.000000 -0.000000 0.000000 -0.000000 
12.125090 15.503153 13.045721 179.280872 2.589349 -169.364481 0.751471 -1.560205 -5.622350 -11.235415 -1.066588 -46.034942 -3.387643 19.205434 67.413602 -8.994800 -4.905273 6.526094 8.443082 -0.215839 -12.120287 4.053656 7.202247 -9.437569 15.454499 -9.937646 -11.517212 -8.313741 -11.385039 40.698461 -17.676709 -5.913318 -28.177131 23.813806 2.823361 -32.624610 -7.005408 -4.056049 21.898772 3.340464 2.928760 -9.124920 -6.260114 2.997374 4.981561 4.790281 0.900325 -16.553196 7.028820 -1.038668 6.008421 -6.714771 -1.190679 -0.579826 15.655883 6.265370 -4.359225 -80.929560 3.570424 19.144457 43.776853 -70.131858 -8.174802 -6.179052 -32.366716 6.576630 0.000000 0.000000 0.000000 -0.000000 0.000000 -0.000000 0.000000 0.000000 0.000000 -2.143095 4.716580 9.174942 60.232341 51.364154 -1.612712 4.594019 79.461606 26.406453 -10.000838 14.299045 0.601082 0.000000 -0.000000 0.000000 0.000000 0.000000 -0.000000 0.000000 -0.000000 -0.000000 
12.127598 15.567718 12.681111 178.688250 2.000115 -169.411318 0.369091 -1.134731 -5.419930 -11.791544 -2.309801 -46.792496 -2.936763 19.155453 64.344309 -9.330167 -6.878371 6.785281 6.982010 2.171955 -11.407105 4.252478 7.256531 -9.314381 14.132966 -11.039168 -9.224428 -7.727084 -11.636319 38.526836 -15.278800 -3.770552 -26.843212 23.022445 3.856248 -32.395071 -6.840737 -4.178221 21.664155 3.176899 3.181755 -9.269309 -6.427876 3.309628 4.958691 4.373383 0.721824 -16.622806 6.801703 -1.141371 6.017372 -6.474720 -2.034390 0.005339 14.801598 6.108063 -4.571432 -80.660750 5.244623 19.242729 45.624856 -70.177197 -10.126210 -6.888235 -31.696872 6.654870 0.000000 0.000000 0.000000 -0.000000 0.000000 0.000000 0.000000 0.000000 0.000000 -2.274520 4.782085 8.674474 59.482452 50.945784 -1.861369 1.828155 80.781713 24.475105 -12.774258 13.541128 0.190235 0.000000 -0.000000 0.000000 0.000000 -0.000000 0.000000 0.000000 -0.000000 -0.000000 
12.130165 15.637688 12.313363 178.203281 1.294606 -169.590191 0.122349 -0.978923 -5.154304 -11.866714 -3.728841 -46.892500 -4.264226 18.796372 60.713235 -7.696427 -8.122304 5.584418 4.873631 4.127841 -9.496973 4.426654 7.588057 -9.433215 12.761857 -12.411237 -6.534795 -6.105757 -10.754799 36.620190 -12.607886 -3.307278 -24.592867 23.933994 4.711122 -34.004491 -6.795105 -4.273979 21.628565 3.096106 3.458104 -9.456970 -6.706531 3.686634 4.835503 4.247413 0.612901 -16.651165 6.507991 -1.220337 6.040116 -6.151928 -2.576963 0.708075 14.387943 5.740519 -4.814222 -80.541861 6.865146 19.549796 47.974588 -70.016505 -12.682615 -7.110479 -30.906914 6.551392 -0.000000 0.000000 0.000000 -0.000000 -0.000000 0.000000 -0.000000 0.000000 0.000000 -2.105280 4.689831 8.227100 58.806218 50.220110 -1.734102 -0.893101 82.043939 22.160396 -13.036205 13.018462 0.141588 0.000000 -0.000000 0.000000 0.000000 0.000000 -0.000000 -0.000000 0.000000 -0.000000 
12.126411 15.703754 11.935165 177.909004 0.370843 -169.919178 -0.033447 -0.689153 -4.959988 -12.431832 -4.896868 -46.569327 -4.355665 18.128198 57.035989 -8.134911 -10.201252 4.512273 5.671910 3.036069 -10.022613 4.258366 7.996918 -9.669920 11.862184 -13.625197 -3.450714 -4.667399 -10.379577 34.455731 -9.747279 -2.822389 -21.303369 22.795685 6.971699 -34.264708 -6.624069 -4.436511 21.633334 3.045603 3.635568 -9.582516 -6.603455 3.877144 4.699151 3.905369 0.569316 -16.608109 6.140755 -1.203881 6.101830 -5.321521 -3.132525 1.207985 13.933240 5.499116 -4.997116 -80.650296 8.404276 18.814749 48.221976 -70.591338 -11.969135 -5.564651 -32.195274 6.348683 0.000000 -0.000000 -0.000000 0.000000 -0.000000 -0.000000 0.000000 -0.000000 -0.000000 -2.276319 4.626686 8.003413 58.215612 49.401523 -1.201199 -4.115898 83.295068 19.868652 -14.722488 12.915989 -0.076898 0.000000 -0.000000 0.000000 -0.000000 0.000000 -0.000000 0.000000 -0.000000 -0.000000 
12.119009 15.764865 11.556156 177.642315 -0.466582 -170.184388 -0.021239 -0.529472 -4.674667 -12.705986 -6.320014 -46.103016 -5.335036 17.502989 52.874256 -8.343875 -11.190157 3.352196 6.781284 1.225617 -10.583149 4.068086 8.390542 -9.869346 11.077084 -15.503996 -0.724400 -3.567718 -9.353079 32.357268 -6.375671 -2.212927 -17.652338 21.566809 9.614872 -34.777648 -6.367395 -4.517931 21.492219 2.933799 3.863162 -9.650089 -6.595097 4.116554 4.457336 3.633655 0.441327 -16.444143 5.770388 -1.256339 6.183620 -4.930790 -3.757191 1.436939 13.636807 5.064009 -5.235131 -80.737551 10.111878 18.396590 49.176592 -70.920101 -12.271706 -4.125305 -32.429986 5.944959 0.000000 -0.000000 -0.000000 -0.000000 -0.000000 -0.000000 0.000000 -0.000000 -0.000000 -2.409600 4.540932 7.717736 57.698129 48.397461 -0.756603 -7.636168 84.510863 16.802147 -14.107985 12.816100 0.000069 0.000000 -0.000000 0.000000 0.000000 0.000000 0.000000 0.000000 -0.000000 -0.000000 
